<svg width="24" height="25" viewBox="0 0 24 25" fill="none" xmlns="http://www.w3.org/2000/svg">
<path d="M11 9.48047V6.48047H8V4.48047H11V1.48047H13V4.48047H16V6.48047H13V9.48047H11ZM7 22.4805C6.45 22.4805 5.975 22.2888 5.575 21.9055C5.19167 21.5055 5 21.0305 5 20.4805C5 19.9305 5.19167 19.4638 5.575 19.0805C5.975 18.6805 6.45 18.4805 7 18.4805C7.55 18.4805 8.01667 18.6805 8.4 19.0805C8.8 19.4638 9 19.9305 9 20.4805C9 21.0305 8.8 21.5055 8.4 21.9055C8.01667 22.2888 7.55 22.4805 7 22.4805ZM17 22.4805C16.45 22.4805 15.975 22.2888 15.575 21.9055C15.1917 21.5055 15 21.0305 15 20.4805C15 19.9305 15.1917 19.4638 15.575 19.0805C15.975 18.6805 16.45 18.4805 17 18.4805C17.55 18.4805 18.0167 18.6805 18.4 19.0805C18.8 19.4638 19 19.9305 19 20.4805C19 21.0305 18.8 21.5055 18.4 21.9055C18.0167 22.2888 17.55 22.4805 17 22.4805ZM1 4.48047V2.48047H4.275L8.525 11.4805H15.525L19.425 4.48047H21.7L17.3 12.4305C17.1167 12.7638 16.8667 13.0221 16.55 13.2055C16.25 13.3888 15.9167 13.4805 15.55 13.4805H8.1L7 15.4805H19V17.4805H7C6.25 17.4805 5.675 17.1555 5.275 16.5055C4.89167 15.8555 4.88333 15.1971 5.25 14.5305L6.6 12.0805L3 4.48047H1Z" fill="#293B50"/>
</svg>
