<svg width="28" height="28" viewBox="0 0 28 28" fill="none" xmlns="http://www.w3.org/2000/svg">
<path d="M14 0.6875C21.375 0.6875 27.3125 6.625 27.3125 14C27.3125 21.375 21.375 27.3125 14 27.3125C6.625 27.3125 0.6875 21.375 0.6875 14C0.6875 6.625 6.625 0.6875 14 0.6875ZM14 24.6875C19.875 24.6875 24.6875 19.875 24.6875 14C24.6875 8.125 19.875 3.3125 14 3.3125C8.125 3.3125 3.3125 8.125 3.3125 14C3.3125 19.875 8.125 24.6875 14 24.6875ZM20.125 8.125L22 10L11.3125 20.6875L6 15.3125L7.875 13.4375L11.3125 16.875L20.125 8.125Z" fill="#293B50"/>
</svg>
