<svg width="18" height="18" viewBox="0 0 18 18" fill="none" xmlns="http://www.w3.org/2000/svg"><g clip-path="url(#clip0_65_9462)"><path fill-rule="evenodd" clip-rule="evenodd" d="M4.2383 3.81798C4.38016 3.68644 4.52688 3.56012 4.6781 3.43939C5.17665 3.06213 5.71764 2.74627 6.29108 2.49753C6.86379 2.26766 7.46136 2.10635 8.07227 2.01745C8.68826 1.94421 9.31047 1.94481 9.92523 2.01799C10.5361 2.1072 11.1336 2.26717 11.7073 2.49788C12.2798 2.74532 12.8196 3.06035 13.3167 3.43575C13.7758 3.80265 14.194 4.21908 14.56 4.67764C14.9362 5.17474 15.2519 5.71467 15.4999 6.28733C15.7298 6.85959 15.8916 7.45832 15.9814 8.06913C16.0546 8.6875 16.0546 9.31445 15.9813 9.93282C15.892 10.5416 15.7323 11.1371 15.5023 11.7089C15.2549 12.2814 14.9399 12.8212 14.5644 13.3183C14.1976 13.7774 13.7811 14.1955 13.3226 14.5616C12.8255 14.9377 12.2855 15.2534 11.7129 15.5015C11.1406 15.7314 10.5419 15.8932 9.93103 15.9829C9.31269 16.0562 8.68577 16.0562 8.06742 15.9829C7.45864 15.8935 6.86316 15.7339 6.29133 15.5039C5.71884 15.2565 5.17899 14.9414 4.68189 14.566C4.22281 14.1991 3.80467 13.7827 3.43858 13.3241C3.06245 12.827 2.74675 12.2871 2.49871 11.7144C2.26765 11.1393 2.1054 10.5374 2.01592 9.92337C1.97952 9.61717 1.96191 9.30859 1.96191 9.00001C1.96191 8.63263 1.63848 8.27931 1.25879 8.29688C0.879102 8.31446 0.555664 8.60626 0.555664 9.00001C0.557422 10.5275 0.975781 12.0533 1.76855 13.3611C2.53496 14.6268 3.64062 15.6955 4.93965 16.4057C6.28613 17.1422 7.83652 17.5078 9.37109 17.4358C10.8881 17.3637 12.3893 16.8926 13.6549 16.0453C14.8854 15.2209 15.9137 14.0836 16.5658 12.7494C17.2426 11.3643 17.5555 9.80157 17.4096 8.26173C17.2672 6.75352 16.7469 5.28575 15.8469 4.06056C14.9662 2.867 13.8008 1.88087 12.4332 1.28849C11.7354 0.986142 11.0164 0.761142 10.2623 0.655673C9.84395 0.597665 9.42383 0.557236 9.0002 0.557236C8.52734 0.557236 8.05801 0.604697 7.59219 0.678525C5.98757 0.931886 4.46897 1.6965 3.275 2.79458V1.99513C3.275 1.62774 2.95156 1.27442 2.57188 1.292C2.19043 1.30958 1.86875 1.60138 1.86875 1.99513V4.5211C1.86875 4.90079 2.19043 5.22423 2.57188 5.22423H5.09785C5.46523 5.22423 5.81855 4.90079 5.80098 4.5211C5.7834 4.13966 5.4916 3.81798 5.09785 3.81798H4.2383ZM6.17891 2.54356L6.23811 2.51901C6.21838 2.52731 6.19864 2.53555 6.17891 2.54356ZM11.8268 15.4547L11.7636 15.4809C11.7847 15.472 11.8057 15.4632 11.8268 15.4547ZM2.01627 9.92631C2.02202 9.96802 2.02752 10.01 2.03223 10.0512C2.02656 10.0096 2.02124 9.96798 2.01627 9.92631Z" fill="#10875C"/><path fill-rule="evenodd" clip-rule="evenodd" d="M8.2918 12.5576C7.79848 12.5063 7.33348 12.3076 6.98047 11.9496C6.61133 11.5734 6.40215 11.0654 6.39687 10.5381C6.39336 10.1443 6.72207 9.85255 7.09648 9.8297C7.27227 9.82091 7.47266 9.91407 7.59395 10.0354C7.72227 10.1637 7.79785 10.3518 7.79961 10.5328C7.79961 10.5557 7.80019 10.5784 7.80136 10.6009C7.8126 10.6542 7.82665 10.7064 7.84369 10.7577C7.86866 10.807 7.89634 10.8543 7.92713 10.9003C7.96187 10.9391 7.99872 10.976 8.03751 11.0108C8.0901 11.0459 8.1449 11.0772 8.20166 11.1053C8.84732 11.322 10.1128 11.39 10.2956 10.516C10.3221 10.0841 10.0284 9.76826 9.61441 9.68773C9.40661 9.67059 9.19677 9.67711 8.98678 9.68363C8.74911 9.69102 8.51126 9.69841 8.27598 9.67149C7.97363 9.63809 7.71875 9.56778 7.44277 9.43243C7.23535 9.33224 7.04023 9.18282 6.88203 9.01759C6.51465 8.63614 6.30723 8.14396 6.28086 7.61661C6.25273 7.04005 6.49707 6.4547 6.90313 6.04864C7.27297 5.67723 7.77244 5.45517 8.2918 5.41022V4.89727C8.2918 4.50352 8.61348 4.21173 8.99492 4.19415C9.37461 4.17657 9.69805 4.52989 9.69805 4.89727V5.41288C10.1887 5.46484 10.6538 5.66343 11.0059 6.02052C11.3768 6.39669 11.5859 6.9047 11.5912 7.43204C11.5947 7.82579 11.266 8.11759 10.8881 8.13517C10.7123 8.14396 10.5119 8.05079 10.3906 7.9295C10.2623 7.80118 10.1867 7.6131 10.185 7.43204C10.185 7.08625 9.89404 6.86603 9.58216 6.80754C9.19897 6.76856 8.76669 6.76889 8.38476 6.80763C7.53258 6.96518 7.58191 8.12476 8.37727 8.27714C8.58504 8.29427 8.79486 8.28775 9.00481 8.28123C9.24249 8.27384 9.48034 8.26645 9.71563 8.29337C10.0461 8.33204 10.3537 8.41642 10.6438 8.58692C10.918 8.74864 11.1324 8.96134 11.3205 9.21446C11.4752 9.42364 11.5895 9.67325 11.6475 9.92638C11.7178 10.241 11.716 10.5346 11.6615 10.8492C11.5842 11.2975 11.3117 11.7457 10.9602 12.0305C10.7281 12.2186 10.5049 12.3486 10.2236 12.4506C10.0567 12.5119 9.87721 12.5461 9.69805 12.5604V13.1027C9.69805 13.4965 9.37461 13.7883 8.99492 13.8059C8.61524 13.8234 8.2918 13.4701 8.2918 13.1027V12.5576Z" fill="#10875C"/></g><defs><clipPath id="clip0_65_9462"><rect width="18" height="18" fill="white"/></clipPath></defs></svg>